<svg width="20" height="17" viewBox="0 0 20 17" fill="none" xmlns="http://www.w3.org/2000/svg">
<path d="M19.7094 14.0693L11.5493 0.877211C11.211 0.330595 10.6271 0 10.0003 0C9.37347 0 8.78954 0.330595 8.45134 0.877211L0.290568 14.0693C-0.0720589 14.6552 -0.0971282 15.3994 0.225816 16.01C0.548161 16.6202 1.16705 17 1.83947 17H18.1604C18.8328 17 19.4518 16.6205 19.7741 16.01C20.0971 15.3994 20.0721 14.6552 19.7094 14.0693ZM8.97583 5.36192C8.97583 4.78181 9.43029 4.31176 9.99039 4.31176C10.5506 4.31176 11.005 4.78181 11.005 5.36192V9.86791C11.005 10.448 10.5506 10.9181 9.99039 10.9181C9.43029 10.9181 8.97583 10.448 8.97583 9.86791V5.36192ZM9.97127 14.7216C9.27113 14.7216 8.70307 14.1339 8.70307 13.4089C8.70307 12.6838 9.27113 12.0962 9.97127 12.0962C10.6715 12.0962 11.2395 12.6838 11.2395 13.4089C11.2395 14.1339 10.6715 14.7216 9.97127 14.7216Z" fill="#BB9B5D"/>
</svg>
