<svg width="32" height="34" viewBox="0 0 32 34" fill="none" xmlns="http://www.w3.org/2000/svg">
    <path d="M26.946 0.910156H5.05386C2.31245 0.910156 0.0905762 3.13203 0.0905762 5.87344V26.1734C0.0905762 28.9149 2.31245 31.1367 5.05386 31.1367H5.75464C5.73745 31.2328 5.72651 31.3313 5.72651 31.432C5.72651 32.3477 6.4687 33.0891 7.38355 33.0891H10.5468C11.4625 33.0891 12.2039 32.3469 12.2039 31.432C12.2039 31.3313 12.1937 31.2328 12.1757 31.1367H19.8234C19.8062 31.2328 19.7953 31.3313 19.7953 31.432C19.7953 32.3477 20.5375 33.0891 21.4523 33.0891H24.6156C25.5312 33.0891 26.2726 32.3469 26.2726 31.432C26.2726 31.3313 26.2625 31.2328 26.2445 31.1367H26.9453C29.6867 31.1367 31.9086 28.9149 31.9086 26.1734V5.87344C31.9093 3.13203 29.6875 0.910156 26.946 0.910156ZM10.2578 27.1484C8.6898 27.1484 7.41792 25.8773 7.41792 24.3086C7.41792 22.7398 8.68901 21.4688 10.2578 21.4688C11.8257 21.4688 13.0976 22.7398 13.0976 24.3086C13.0976 25.8773 11.8257 27.1484 10.2578 27.1484ZM18.9023 24.3086C18.9023 22.7406 20.1734 21.4688 21.7421 21.4688C23.3101 21.4688 24.582 22.7398 24.582 24.3086C24.582 25.8773 23.3109 27.1484 21.7421 27.1484C20.1742 27.1484 18.9023 25.8773 18.9023 24.3086ZM26.4921 15.0547C26.4921 16.1508 25.6039 17.0391 24.5078 17.0391H7.49292C6.39683 17.0391 5.50855 16.1508 5.50855 15.0547V7.88516C5.50855 6.78906 6.39683 5.90078 7.49292 5.90078H24.507C25.6031 5.90078 26.4914 6.78906 26.4914 7.88516V15.0547H26.4921Z" fill="white"/>
</svg>
