<svg width="18" height="19" viewBox="0 0 18 19" fill="none" xmlns="http://www.w3.org/2000/svg">
<path d="M0.50319 1.00319C0.825479 0.680997 1.26254 0.5 1.71826 0.5C2.17397 0.5 2.61103 0.680997 2.93332 1.00319L9.01038 7.08024L15.0874 1.00319C15.4116 0.690128 15.8457 0.516901 16.2963 0.520817C16.7469 0.524732 17.178 0.705478 17.4966 1.02412C17.8153 1.34277 17.996 1.77382 17.9999 2.22444C18.0039 2.67506 17.8306 3.10919 17.5176 3.43332L11.4405 9.51038L17.5176 15.5874C17.8306 15.9116 18.0039 16.3457 17.9999 16.7963C17.996 17.2469 17.8153 17.678 17.4966 17.9966C17.178 18.3153 16.7469 18.496 16.2963 18.4999C15.8457 18.5039 15.4116 18.3306 15.0874 18.0176L9.01038 11.9405L2.93332 18.0176C2.60919 18.3306 2.17506 18.5039 1.72444 18.4999C1.27382 18.496 0.842772 18.3153 0.524125 17.9966C0.205478 17.678 0.0247324 17.2469 0.0208166 16.7963C0.0169009 16.3457 0.190128 15.9116 0.50319 15.5874L6.58024 9.51038L0.50319 3.43332C0.180997 3.11103 0 2.67397 0 2.21826C0 1.76254 0.180997 1.32548 0.50319 1.00319Z" fill="#AC5F5F"/>
</svg>
