<svg width="20" height="16" viewBox="0 0 20 16" fill="none" xmlns="http://www.w3.org/2000/svg">
<path fill-rule="evenodd" clip-rule="evenodd" d="M1.17157 1.17157C1.19209e-07 2.34315 0 4.22876 0 8C0 11.7712 1.19209e-07 13.6569 1.17157 14.8284C2.34315 16 4.22876 16 8 16H12C15.7712 16 17.6569 16 18.8284 14.8284C20 13.6569 20 11.7712 20 8C20 4.22876 20 2.34315 18.8284 1.17157C17.6569 -1.19209e-07 15.7712 0 12 0H8C4.22876 0 2.34315 -1.19209e-07 1.17157 1.17157ZM16.5762 3.51986C16.8413 3.83807 16.7983 4.31099 16.4801 4.57617L14.2837 6.4066C13.3973 7.1452 12.6789 7.7439 12.0448 8.1517C11.3843 8.5765 10.7411 8.8449 10 8.8449C9.2589 8.8449 8.6157 8.5765 7.95518 8.1517C7.32112 7.7439 6.60271 7.1452 5.71636 6.4066L3.51986 4.57617C3.20165 4.31099 3.15866 3.83807 3.42383 3.51986C3.68901 3.20165 4.16193 3.15866 4.48014 3.42383L6.63903 5.22291C7.57199 6.0004 8.2197 6.5384 8.7666 6.8901C9.2959 7.2306 9.6549 7.3449 10 7.3449C10.3451 7.3449 10.7041 7.2306 11.2334 6.8901C11.7803 6.5384 12.428 6.0004 13.361 5.22291L15.5199 3.42383C15.8381 3.15866 16.311 3.20165 16.5762 3.51986Z" fill="#56746F"/>
</svg>
