<?xml version="1.0" encoding="UTF-8"?>
<svg version="1.1" viewBox="0 0 1600 1600" width="100" height="100" xmlns="http://www.w3.org/2000/svg">
<path transform="translate(997,311)" d="m0 0h7l8 5 3 5 1 7 1 10h2l-1 3-1 7 1 11 1 23 1 5-1 3-4 2-5 10-8 13-9 16-8 15-8 13-6 12-15 25-10 17-12 21-9 16-13 22-10 17-9 15-4 11v8l4 11 6 20 11 31 3 10 3 5 10-2 21-10 27-9 4-5 4-10 15-95 15-90 8-53 5-33 2-5 13-10 17-13 14-14 5-3 5 2 5 4 8 16 7 11 10 13 14 18 11 14 13 15 12 14 28 28 11 9 17 14 14 11 14 10 16 10 24 14 29 15 22 10 24 9 21 7 55 14 16 6 11 6 9 6 8 9 8 13 5 15 2 16-2 14-5 15-5 9-8 10-2 3h-2l-2 4-13 9-10 5-15 3h-21l-28-4-25-5-19-5-36-12-38-16-23-11-23-13-18-11-15-10-16-11-21-16-11-9-13-11-13-9-2-1-4 18-5 19-14 47-16 54-8 28-17 56-14 47-20 66-7 21-4 10 2 7 6 9 12 13 11 14 10 12 7 9 11 13 11 14 14 17 11 14 9 10 11 14 12 14 11 14 14 18 10 15 8 16 3 12 1 16v56l-1 235-2 18-5 15-10 16-7 9-7 8-13 8-12 6-5 5v2h-55l-17-11-12-8-10-8-10-11-10-18-5-15-2-18-1-22v-233l-6-10-14-17-10-13-18-22-11-13-9-11-12-14-12-16-9-11-11-13-9-11-13-15-9-11-12-13-11-8-7-2-5 3-8 10-9 14-10 17-8 16-25 45-13 23-13 24-9 15-6 11-12 23-11 19-14 24-7 11-8 10-9 8-18 10-18 8-16 8-26 11-39 18-30 13-36 16-14 7-21 9-16 7-30 10-8 2h-20l-21-5-17-8-9-7-9-9-9-13-10-19-5-16-1-5v-17l4-17 8-21 12-16 10-9 14-9 24-12 20-9 32-15 32-14 20-9 29-13 25-11 12-5 6-4 9-12 13-22 4-6 6-11 11-21 9-15 11-20 20-36 12-22 10-18 9-15 8-16 10-18 12-23 3-13 4-40 4-18 7-23 10-34 6-19 18-60 14-48 34-116 13-41 7-22 5-16-1-2-1-1-17 4-25 10-16 9-13 11-8 7-10 10-10 13-10 14-11 16-14 23-15 22-13 21-9 14-5 9-15 25-11 17-9 16-10 17-5 8-1 6 1 8 4 8v7l-6 20-7 14-1 4v8l8 7 23 11 20 11 18 11 17 12 10 8 4 8 1 7-4 16-11 23-10 19-7 11-6 11-15 27-12 20-10 18-9 16-11 19-16 27-7 13-12 20-8 14-9 14-5 5-5 4-2 1h-10l-13-3-23-10-26-14-21-12-25-14-27-16-46-26-28-16-17-10-22-12-23-13-24-14-25-14-20-12-21-13-13-10-7-7-4-11 2-10 11-24 10-19 14-24 12-21 7-11 6-12 28-48 6-11 14-25 11-19 12-21 10-16 8-10 7-6 10-4 8 1 21 9 20 10 24 14 20 11 10 7 7 2 5-6 4-8 9-10 9-9 18-10 8-3 7-6 11-19 9-15 12-22 7-11 13-22 6-9 13-20 8-13 18-27 12-19 7-11 7-10 11-15 12-16 9-11 10-11h2v-2l8-7 7-7 14-11 19-12 13-8 22-12 25-11 33-11 31-8 43-8 38-4 16-1h42l26 1h38zm19 76m-129 228 1 2zm-452 108-6 7-4 8 1 5 8 6 14 8 10 6 20 11 13 9 11 6 8 1 6-5 4-9v-3h-2v-2l-12-2-15-2-12-3-5-3-4-2-5-5-9-7-4-4-3-5-9-14z" fill="#FEFEFE"/>
<path transform="translate(1092)" d="m0 0h91v4l-14-1v2l27 11 16 8 16 9 16 11 12 11 8 8 13 18 10 19 5 17 1 6v26l-4 20-7 21-14 29-8 14-19 28-10 13-11 12-14 14-11 9-13 9-16 9-11 5-18 5-17 3-8 1h-31-2l-3 1-3-2v-2l-7-1-16-6-13-8-11-9-7-5-2-5-3-1-12-16-10-18-6-17-4-16-3-26 2-29 4-24 7-26 8-21 10-22 12-22 7-12 7-9 11-13 15-13 19-12z" fill="#fff"/>
<path transform="translate(1048,1598)" d="m0 0h2v2h-2z" fill="#fff"/>
<path transform="translate(1044,1598)" d="m0 0h2v2h-2z" fill="#fff"/>
<path transform="translate(1084,345)" d="m0 0 3 1h-3z" fill="#fff"/>
<path transform="translate(1054,1599)" d="m0 0 2 1z" fill="#fff"/>
<path transform="translate(1051,1599)" d="m0 0 2 1z" fill="#fff"/>
<path transform="translate(507,771)" d="m0 0 2 1z"/>
<path transform="translate(460,752)" d="m0 0" fill="#fff"/>
<path transform="translate(1169,3)" d="m0 0" fill="#fff"/>
</svg>
