<svg width="37" height="37" viewBox="0 0 37 37" fill="none" xmlns="http://www.w3.org/2000/svg">
<g clip-path="url(#clip0_1014_132)">
<path d="M30.8145 0.398926H6.18574C3.10166 0.398926 0.602051 2.89854 0.602051 5.98262V28.8201C0.602051 31.9042 3.10166 34.4038 6.18574 34.4038H6.97412C6.95479 34.5119 6.94248 34.6227 6.94248 34.736C6.94248 35.7661 7.77744 36.6002 8.80664 36.6002H12.3653C13.3954 36.6002 14.2295 35.7652 14.2295 34.736C14.2295 34.6227 14.2181 34.5119 14.1979 34.4038H22.8015C22.7821 34.5119 22.7698 34.6227 22.7698 34.736C22.7698 35.7661 23.6048 36.6002 24.634 36.6002H28.1927C29.2228 36.6002 30.0568 35.7652 30.0568 34.736C30.0568 34.6227 30.0454 34.5119 30.0252 34.4038H30.8136C33.8977 34.4038 36.3973 31.9042 36.3973 28.8201V5.98262C36.3981 2.89854 33.8985 0.398926 30.8145 0.398926ZM12.0401 29.917C10.2762 29.917 8.84531 28.487 8.84531 26.7222C8.84531 24.9573 10.2753 23.5274 12.0401 23.5274C13.8041 23.5274 15.235 24.9573 15.235 26.7222C15.235 28.487 13.8041 29.917 12.0401 29.917ZM21.7652 26.7222C21.7652 24.9582 23.1952 23.5274 24.9601 23.5274C26.724 23.5274 28.1549 24.9573 28.1549 26.7222C28.1549 28.487 26.7249 29.917 24.9601 29.917C23.1961 29.917 21.7652 28.487 21.7652 26.7222ZM30.3038 16.3115C30.3038 17.5446 29.3045 18.5439 28.0714 18.5439H8.92969C7.69658 18.5439 6.69727 17.5446 6.69727 16.3115V8.2458C6.69727 7.0127 7.69658 6.01338 8.92969 6.01338H28.0705C29.3036 6.01338 30.3029 7.0127 30.3029 8.2458V16.3115H30.3038Z" fill="white"/>
</g>
<defs>
<clipPath id="clip0_1014_132">
<rect width="37" height="37" fill="white"/>
</clipPath>
</defs>
</svg>
