<svg width="45" height="42" viewBox="0 0 45 42" fill="none" xmlns="http://www.w3.org/2000/svg">
    <path d="M9.39901 0.0434148C8.82301 0.119061 8.30701 0.27338 7.83001 0.512423C7.52401 0.663716 7.40401 0.730285 7.38001 0.757518C7.37101 0.766596 7.31101 0.805932 7.24501 0.845268C7.17901 0.884604 7.11901 0.92394 7.11001 0.933018C7.10101 0.945121 7.04701 0.984457 6.99001 1.02379C6.84301 1.12667 6.21001 1.73185 6.21001 1.76816C6.21001 1.77421 6.17401 1.8196 6.13201 1.86498C5.86501 2.15244 5.44801 2.93009 5.28301 3.44146C5.09402 4.0315 5.06102 4.2887 5.04302 5.3538L5.02501 6.30695L4.24502 6.3251C3.43502 6.34326 3.27902 6.36746 2.92502 6.51876C2.48402 6.70939 1.97702 7.22076 1.78502 7.67161C1.64402 7.9984 1.61702 8.16785 1.59902 8.80933L1.58102 9.43871H1.43102C1.23902 9.43871 0.927019 9.51738 0.741019 9.61119C0.55802 9.70196 0.30302 9.95311 0.18902 10.1498C-0.00597984 10.4857 2.01638e-05 10.3828 2.01638e-05 13.8262C2.01638e-05 16.8309 0.00302016 16.9519 0.0600201 17.1577C0.0900201 17.2757 0.15602 17.4361 0.20102 17.5117C0.37202 17.8113 0.726019 18.0745 1.05302 18.1502C1.22402 18.1925 3.00602 18.1925 3.17702 18.1502C3.38702 18.1018 3.61802 17.9747 3.79202 17.8082C3.98102 17.6267 4.09202 17.4391 4.17302 17.1789C4.22702 16.9973 4.23002 16.849 4.23002 13.8323C4.23002 10.4221 4.23602 10.5492 4.07402 10.2012C3.98402 10.0076 3.71702 9.73525 3.51602 9.62632C3.30902 9.51436 3.02102 9.43871 2.79902 9.43871H2.64002V8.93037C2.64002 8.55516 2.65202 8.37966 2.68802 8.26165C2.73602 8.08918 2.89802 7.80475 2.94302 7.80475C2.95802 7.80475 2.97002 7.78357 2.97002 7.75936C2.97002 7.73515 2.99102 7.71397 3.01502 7.71397C3.03902 7.71397 3.06002 7.70187 3.06002 7.68674C3.06002 7.64135 3.34202 7.47795 3.51302 7.42954C3.63602 7.3902 3.82202 7.38113 4.35602 7.38113H5.04002V21.9597C5.04002 36.269 5.04002 36.5444 5.09702 36.7955C5.16602 37.0951 5.20201 37.1949 5.33701 37.4582C5.67001 38.1178 6.26701 38.5929 7.02901 38.8047L7.20001 38.8531V39.8274C7.20001 40.8774 7.21801 41.0075 7.37401 41.2708C7.41001 41.3283 7.44901 41.3948 7.45801 41.416C7.48201 41.4675 7.74001 41.7246 7.81801 41.7761C7.85101 41.7973 7.92301 41.8366 7.98001 41.8638C8.26501 41.997 8.25001 41.997 10.377 41.997C11.673 41.997 12.447 41.9849 12.525 41.9667C12.681 41.9244 13.023 41.7519 13.041 41.7035C13.05 41.6823 13.074 41.6641 13.098 41.6641C13.122 41.6641 13.14 41.643 13.14 41.6187C13.14 41.5945 13.161 41.5734 13.185 41.5734C13.209 41.5734 13.23 41.5552 13.23 41.531C13.23 41.5068 13.248 41.4826 13.269 41.4735C13.332 41.4493 13.497 41.0832 13.545 40.8623C13.578 40.7019 13.59 40.4296 13.59 39.7639V38.8803H31.41V39.7578C31.41 40.4356 31.422 40.6898 31.458 40.8653C31.503 41.0892 31.644 41.4039 31.728 41.4705C31.752 41.4886 31.77 41.5128 31.77 41.5249C31.77 41.5552 31.887 41.6641 31.92 41.6641C31.938 41.6641 31.95 41.6762 31.95 41.6914C31.95 41.7367 32.271 41.9092 32.439 41.9546C32.67 42.0151 36.588 42.0151 36.783 41.9546C36.927 41.9092 37.095 41.8336 37.182 41.7761C37.26 41.7246 37.518 41.4675 37.542 41.416C37.551 41.3948 37.59 41.3283 37.626 41.2708C37.785 41.0075 37.8 40.8774 37.8 39.8093C37.8 39.0437 37.809 38.8168 37.839 38.8077C38.196 38.7018 38.553 38.5445 38.673 38.4386C38.697 38.4144 38.727 38.3962 38.739 38.3962C38.781 38.3962 39.108 38.0785 39.327 37.8213C39.423 37.7093 39.654 37.2585 39.729 37.0346C39.858 36.6594 39.855 36.7592 39.855 29.833C39.852 26.1959 39.852 23.1731 39.849 23.1156C39.846 23.0581 39.852 19.4936 39.858 15.1939L39.873 7.38113H40.53C40.53 7.38113 41.469 7.40533 41.775 7.63833C41.937 7.76239 42.012 7.85316 42.102 8.03774C42.21 8.2556 42.234 8.41295 42.249 8.96063L42.261 9.43871H42.153C41.988 9.43871 41.688 9.52041 41.511 9.60816C41.316 9.70801 41.013 10.0136 40.929 10.1952C40.764 10.5492 40.77 10.4191 40.77 13.8111C40.77 17.2666 40.764 17.1365 40.956 17.4875C41.124 17.7961 41.484 18.0715 41.823 18.1502C41.994 18.1925 43.776 18.1925 43.947 18.1502C44.274 18.0745 44.628 17.8113 44.799 17.5117C44.844 17.4361 44.91 17.2757 44.94 17.1577C44.997 16.9519 45 16.8309 45 13.8232C45 10.4221 45.006 10.5341 44.829 10.1831C44.733 9.98942 44.454 9.70801 44.262 9.61119C44.055 9.50528 43.758 9.43871 43.506 9.43871H43.29V8.89708C43.29 8.34335 43.26 8.11339 43.149 7.80475C43.08 7.61412 42.939 7.35692 42.831 7.21773C42.723 7.08157 42.456 6.80621 42.429 6.80621C42.42 6.80621 42.363 6.76688 42.303 6.72149C42.159 6.60953 41.889 6.48245 41.643 6.4068C41.475 6.35839 41.322 6.34628 40.659 6.33115L39.876 6.31602L39.861 5.97713C39.852 5.79255 39.846 5.42642 39.843 5.16317C39.843 4.40671 39.741 3.75615 39.549 3.30529C39.528 3.25385 39.51 3.19636 39.51 3.17821C39.51 3.16005 39.498 3.12072 39.483 3.09046C39.468 3.06322 39.402 2.93009 39.339 2.79695C39.276 2.66381 39.219 2.54883 39.21 2.53975C39.201 2.53067 39.135 2.42779 39.066 2.30978C38.997 2.1948 38.916 2.07074 38.886 2.03746C38.859 2.0072 38.781 1.91037 38.718 1.82867C38.583 1.6562 38.19 1.26284 38.043 1.14785C37.989 1.10549 37.929 1.05708 37.908 1.03892C37.743 0.884604 36.951 0.421647 36.849 0.421647C36.831 0.421647 36.81 0.41257 36.804 0.397441C36.792 0.373234 36.276 0.20076 36.015 0.137217C35.436 -0.00802481 35.955 -0.00197309 22.395 0.00105277C12.102 0.00407864 9.64801 0.0131562 9.39901 0.0434148ZM32.16 2.88167C32.802 2.88772 32.841 2.89378 32.964 2.96034C33.135 3.05415 33.333 3.25385 33.423 3.41725L33.495 3.55341V4.58221C33.495 5.5414 33.492 5.62008 33.438 5.73203C33.348 5.91661 33.267 6.01646 33.117 6.12539C32.829 6.34023 23.718 6.313 12.555 6.30695L12.387 6.22525C12.213 6.14052 12.066 5.99831 11.943 5.7986C11.883 5.70177 11.871 5.6231 11.847 5.25395C11.817 4.74863 11.817 3.73194 11.85 3.64419C11.865 3.6109 11.889 3.52921 11.907 3.45961C11.937 3.3416 12.144 3.0844 12.207 3.0844C12.222 3.0844 12.243 3.05717 12.255 3.02691C12.276 2.95732 12.333 2.93614 12.6 2.89075C12.738 2.86654 15.534 2.86049 22.14 2.86352C27.279 2.86957 31.788 2.87562 32.16 2.88167ZM36 9.44471C36.354 9.54154 36.711 9.74124 36.963 9.97726C37.206 10.2042 37.452 10.6127 37.578 11L37.635 24.0051L37.566 24.2018C37.425 24.6194 37.212 24.9583 36.936 25.2125C36.897 25.2457 36.825 25.3093 36.78 25.3516C36.705 25.4212 36.339 25.6209 36.165 25.6905C36.102 25.7147 35.628 25.8449 35.325 25.9175C35.226 25.9417 35.064 25.984 34.965 26.0083C34.866 26.0325 34.704 26.0748 34.605 26.099C33.894 26.2776 33.594 26.3471 33.165 26.4258C33.018 26.4531 32.868 26.4894 32.835 26.5045C32.802 26.5196 32.682 26.5469 32.565 26.562C32.451 26.5771 32.247 26.6134 32.115 26.6376C31.68 26.7254 30.72 26.8888 30.195 26.9674C30.015 26.9947 29.784 27.031 29.685 27.0461C29.427 27.0885 28.656 27.1823 27.975 27.2549C27.81 27.2731 27.546 27.3033 27.39 27.3184C26.958 27.3669 26.046 27.4304 24.882 27.5C23.232 27.5968 20.334 27.5545 18.675 27.4092C18.477 27.3941 18.153 27.3638 17.955 27.3487C16.674 27.2398 15.135 27.0401 13.965 26.8343C13.767 26.798 13.503 26.7587 13.38 26.7435C13.257 26.7284 13.08 26.7012 12.99 26.68C12.9 26.6618 12.777 26.6407 12.72 26.6346C12.663 26.6286 12.588 26.6104 12.555 26.5953C12.522 26.5801 12.42 26.5499 12.33 26.5317C12.24 26.5105 11.976 26.4561 11.745 26.4046C11.514 26.3562 11.265 26.3018 11.19 26.2866C11.064 26.2624 10.617 26.1535 10.32 26.0778C10.164 26.0385 9.87001 25.9659 9.72001 25.9296C9.47101 25.8691 8.88901 25.7117 8.83501 25.6905C8.66101 25.6209 8.29501 25.4212 8.22001 25.3516C8.17501 25.3093 8.10301 25.2457 8.06401 25.2125C7.71001 24.8857 7.45801 24.4166 7.37701 23.9355C7.33801 23.6935 7.33801 11.5749 7.38001 11.2723C7.44301 10.7912 7.66501 10.3464 8.01901 9.99541C8.16901 9.84715 8.49901 9.62929 8.70001 9.54759C8.79001 9.51128 8.89801 9.46589 8.94001 9.44773C9.04501 9.39629 14.586 9.37814 26.34 9.39024C34.77 9.39629 35.853 9.40235 36 9.44471ZM8.62501 31.2854C8.92201 31.3369 9.28801 31.4004 9.43501 31.4246C9.94801 31.5124 10.185 31.5517 10.5 31.6001C10.674 31.6273 10.836 31.6546 10.86 31.6637C10.911 31.6788 11.565 31.7938 12.345 31.9239C13.329 32.0873 13.353 32.1236 13.398 33.4368C13.41 33.7818 13.41 34.1086 13.398 34.166C13.377 34.278 13.239 34.4505 13.095 34.5413C13.014 34.5957 12.915 34.5987 11.805 34.6139C11.145 34.623 9.97801 34.629 9.21001 34.629C7.91101 34.629 7.80601 34.626 7.70401 34.5715C7.55701 34.4989 7.41901 34.3415 7.38301 34.1993C7.36201 34.1237 7.35901 33.6516 7.37401 32.8589C7.39801 31.5214 7.39801 31.5245 7.58401 31.349C7.77601 31.1704 7.89301 31.1614 8.62501 31.2854ZM37.239 31.237C37.38 31.2945 37.491 31.4095 37.557 31.5608C37.611 31.6848 37.614 31.7938 37.626 32.9496C37.635 34.1903 37.635 34.2054 37.569 34.3294C37.533 34.396 37.446 34.4898 37.377 34.5413L37.251 34.629H35.868C35.106 34.632 33.924 34.623 33.24 34.6139C32.085 34.5987 31.986 34.5957 31.905 34.5413C31.785 34.4656 31.653 34.3204 31.617 34.2296C31.581 34.1358 31.584 33.7122 31.62 33.0253C31.653 32.4201 31.692 32.287 31.875 32.1448C32.01 32.0419 32.067 32.0268 32.97 31.8724C34.005 31.6939 34.752 31.5638 35.07 31.5093C35.211 31.4821 35.439 31.4428 35.58 31.4216C35.721 31.3974 36.066 31.3369 36.345 31.2885C36.927 31.1886 37.101 31.1765 37.239 31.237Z" fill="white"/>
</svg>
