<svg width="24" height="17" viewBox="0 0 24 17" fill="none" xmlns="http://www.w3.org/2000/svg">
    <path d="M0 4.76051V4.08058C0 3.51731 0.485331 3.06069 1.08403 3.06069H17.3445V1.02091C17.3445 0.112908 18.5143 -0.340732 19.1951 0.299718L22.8086 3.69936C23.2319 4.09767 23.2319 4.74343 22.8086 5.1417L19.1951 8.54134C18.5169 9.17928 17.3445 8.73197 17.3445 7.82019V5.7804H1.08403C0.485331 5.7804 0 5.32379 0 4.76051ZM22.042 11.2198H5.78151V9.18004C5.78151 8.27429 4.61337 7.81679 3.93093 8.45885L0.317486 11.8585C-0.105829 12.2568 -0.105829 12.9026 0.317486 13.3008L3.93093 16.7005C4.60971 17.3391 5.78151 16.8903 5.78151 15.9793V13.9395H22.042C22.6407 13.9395 23.126 13.4829 23.126 12.9196V12.2397C23.126 11.6764 22.6407 11.2198 22.042 11.2198Z" fill="#51AF9F"/>
</svg>
