<svg width="17" height="17" viewBox="0 0 17 17" fill="none" xmlns="http://www.w3.org/2000/svg">
<path d="M7.99009 13.737L14.2766 7.45049C13.421 7.09443 12.4076 6.50946 11.4493 5.55107C10.4907 4.59253 9.90566 3.57899 9.54959 2.72331L3.263 9.0099C2.77244 9.50052 2.52711 9.74583 2.31617 10.0162C2.06731 10.3353 1.85397 10.6805 1.67989 11.0457C1.53232 11.3554 1.42263 11.6845 1.20323 12.3427L0.046282 15.8135C-0.0616851 16.1374 0.0226095 16.4945 0.264035 16.736C0.505461 16.9774 0.862563 17.0617 1.18646 16.9537L4.65731 15.7967C5.31549 15.5773 5.6446 15.4677 5.95424 15.3201C6.31949 15.146 6.66471 14.9327 6.98378 14.6838C7.25416 14.4728 7.49956 14.2275 7.99009 13.737Z" fill="#56746F"/>
<path d="M16.021 5.70609C17.3263 4.40074 17.3263 2.28436 16.021 0.979013C14.7156 -0.326338 12.5992 -0.326338 11.2939 0.979013L10.5399 1.733C10.5503 1.76417 10.5609 1.79578 10.5721 1.8278C10.8484 2.62437 11.3699 3.6686 12.3508 4.64951C13.3317 5.63042 14.3759 6.15186 15.1725 6.42822C15.2044 6.43928 15.2358 6.44993 15.2669 6.46021L16.021 5.70609Z" fill="#56746F"/>
</svg>
