<svg width="17" height="18" viewBox="0 0 17 18" fill="none" xmlns="http://www.w3.org/2000/svg">
<path d="M17 9C17 13.6944 13.1944 17.5 8.5 17.5C3.80558 17.5 0 13.6944 0 9C0 4.30558 3.80558 0.5 8.5 0.5C13.1944 0.5 17 4.30558 17 9Z" fill="#56746F"/>
<path fill-rule="evenodd" clip-rule="evenodd" d="M8.5 4.9625C8.85207 4.9625 9.1375 5.24792 9.1375 5.6V8.7359L11.0758 10.6742C11.3247 10.9232 11.3247 11.3268 11.0758 11.5758C10.8268 11.8247 10.4232 11.8247 10.1742 11.5758L8.04925 9.45076C7.92965 9.33125 7.8625 9.16906 7.8625 9V5.6C7.8625 5.24792 8.14793 4.9625 8.5 4.9625Z" fill="#DBF1E8"/>
</svg>
